<?xml version="1.0" encoding="utf-8"?>
<!-- Generator: Adobe Illustrator 24.1.0, SVG Export Plug-In . SVG Version: 6.00 Build 0)  -->
<svg version="1.1" id="_x36_1f8f3fd-6b56-45c5-89f2-afa0c413a7fa"
	 xmlns="http://www.w3.org/2000/svg" xmlns:xlink="http://www.w3.org/1999/xlink" x="0px" y="0px" viewBox="0 0 680 770.1"
	 style="enable-background:new 0 0 680 770.1;" xml:space="preserve">
<style type="text/css">
	.st0{opacity:0.7;}
	.st1{fill:url(#SVGID_1_);}
	.st2{fill:#535461;}
	.st3{opacity:0.1;}
	.st4{fill:#E0E0E0;}
	.st5{fill:url(#SVGID_2_);}
	.st6{fill:url(#SVGID_3_);}
	.st7{fill:url(#SVGID_4_);}
	.st8{fill:url(#SVGID_5_);}
	.st9{fill:#EEEEEE;}
	.st10{fill:#07C8F9;}
	.st11{fill:url(#SVGID_6_);}
	.st12{fill:url(#SVGID_7_);}
	.st13{fill:url(#SVGID_8_);}
	.st14{fill:url(#SVGID_9_);}
	.st15{fill:url(#SVGID_10_);}
	.st16{fill:url(#SVGID_11_);}
	.st17{fill:url(#SVGID_12_);}
	.st18{fill:url(#SVGID_13_);}
	.st19{fill:url(#SVGID_14_);}
	.st20{fill:url(#SVGID_15_);}
	.st21{fill:url(#SVGID_16_);}
	.st22{fill:url(#SVGID_17_);}
	.st23{fill:url(#SVGID_18_);}
	.st24{fill:url(#SVGID_19_);}
	.st25{fill:url(#SVGID_20_);}
	.st26{fill:url(#SVGID_21_);}
	.st27{opacity:0.4;}
	.st28{fill:url(#SVGID_22_);}
	.st29{opacity:0.2;fill:#07C8F9;enable-background:new    ;}
	.st30{opacity:5.000000e-02;fill:#F55F44;enable-background:new    ;}
	.st31{opacity:0.68;fill:url(#SVGID_23_);enable-background:new    ;}
	.st32{opacity:0.68;fill:url(#SVGID_24_);enable-background:new    ;}
	.st33{opacity:0.68;fill:url(#SVGID_25_);enable-background:new    ;}
	.st34{opacity:0.68;fill:url(#SVGID_26_);enable-background:new    ;}
	.st35{opacity:0.68;fill:url(#SVGID_27_);enable-background:new    ;}
	.st36{opacity:0.68;fill:url(#SVGID_28_);enable-background:new    ;}
	.st37{opacity:0.68;fill:url(#SVGID_29_);enable-background:new    ;}
	.st38{opacity:0.68;fill:url(#SVGID_30_);enable-background:new    ;}
	.st39{fill:url(#SVGID_31_);}
	.st40{fill:url(#SVGID_32_);}
	.st41{opacity:0.1;fill:#F55F44;enable-background:new    ;}
</style>
<g class="st0">
	
		<linearGradient id="SVGID_1_" gradientUnits="userSpaceOnUse" x1="466.56" y1="778.95" x2="466.56" y2="133.0559" gradientTransform="matrix(1 0 0 1 -137.41 -84.95)">
		<stop  offset="0" style="stop-color:#808080;stop-opacity:0.25"/>
		<stop  offset="0.54" style="stop-color:#808080;stop-opacity:0.12"/>
		<stop  offset="1" style="stop-color:#808080;stop-opacity:0.1"/>
	</linearGradient>
	<path class="st1" d="M470.6,346.6c0.1-24.4-5.8-48.4-17-70c-5.3-10.2-10.2-16.5-14-20.3c-2.9-3.1-7.5-4-11.4-2.2
		c-1.5,0.5-2.9,1.4-4,2.6c-5.1,5.3-9.7,12.2-13.7,19.6c-11.8,22.1-18,46.8-17.9,71.9v15.1H383v-175c0-36.7-8.2-72.9-24.3-105
		c-7.6-15.2-14.6-24.7-19.9-30.5c-5-5.7-13.8-6.3-19.5-1.3c-0.5,0.4-0.9,0.8-1.3,1.3c-7.2,7.9-13.8,18.3-19.5,29.3
		c-16.9,32.8-25.5,70-25.5,107.8v173.4h-8.3v-15.8c0.1-25.1-6-49.8-17.9-71.9c-4-7.4-8.6-14.3-13.6-19.6c-3-3.2-7.7-4-11.6-2.1
		l0.4,0.2c-1.2,0.5-2.3,1.3-3.3,2.3c-3.8,3.9-8.6,10.2-14,20.3c-11.2,21.6-17.1,45.6-17,70v261.6h29.8l-3.3,21.5V694h24.4v-64.3
		l-3.3-21.5h29.4V370h8.3v237.2h23.8l-3.4,22.6V694h24.4v-64.3l-3.4-22.6h32.1l-3.4,22.6V694h24.4v-64.3l-3.4-22.6h19V370h9.7v238.6
		h7.8v-0.4h25.9l-3.3,21.5V694h24.4v-64.3l-3.3-21.5h26.3L470.6,346.6L470.6,346.6z"/>
</g>
<polygon class="st2" points="243.4,617.2 220.4,617.2 224.5,589.2 239.3,589.2 "/>
<g class="st3">
	<polygon points="223.3,600.3 240.5,600.3 239.3,592.5 224.5,592.5 	"/>
</g>
<polygon class="st2" points="441.2,617.2 418.1,617.2 422.3,589.2 437.1,589.2 "/>
<g class="st3">
	<polygon points="421.1,600.3 438.2,600.3 437.1,592.5 422.3,592.5 	"/>
</g>
<polygon class="st2" points="318.4,617.2 295.4,617.2 299.5,589.2 314.3,589.2 "/>
<g class="st3">
	<polygon points="298.3,600.3 315.5,600.3 314.3,592.5 299.5,592.5 	"/>
</g>
<polygon class="st2" points="365.4,617.2 342.3,617.2 346.4,589.2 361.3,589.2 "/>
<g class="st3">
	<polygon points="345.3,600.3 362.4,600.3 361.3,592.5 346.4,592.5 	"/>
</g>
<rect x="243.4" y="357.6" class="st2" width="164.8" height="6.6"/>
<path class="st4" d="M433.7,253.5c-3.4-3.8-9.3-4.1-13.1-0.6c-0.2,0.2-0.4,0.4-0.6,0.6c-4.8,5.1-9.1,11.9-12.9,19.1
	c-11.2,21.6-17,45.6-16.9,70v253.7h72.9V341.5c0.1-23.7-5.4-47.1-16.1-68.2C441.9,263.4,437.3,257.3,433.7,253.5z"/>
<path class="st4" d="M224.6,253.5c3.4-3.8,9.3-4.1,13.1-0.6c0.2,0.2,0.4,0.4,0.6,0.6c4.8,5.1,9.1,11.9,12.9,19.1
	c11.2,21.6,17,45.6,16.9,70v253.7h-72.9V341.5c-0.1-23.7,5.4-47.1,16.1-68.2C216.4,263.4,221,257.3,224.6,253.5z"/>
<polygon class="st2" points="195.6,346.9 213,347 213,368.4 195.6,368.4 "/>
<polygon class="st2" points="250.9,346.9 268.2,347 268.2,368.4 250.9,368.4 "/>
<polygon class="st2" points="390.1,346.9 407.4,347 407.4,368.4 390.1,368.4 "/>
<polygon class="st2" points="445.3,346.9 462.6,347 462.6,368.4 445.3,368.4 "/>
<g class="st3">
	<path d="M251.3,272.2c-3.8-7.2-8.1-14-12.9-19.1c-2.8-3.1-7.3-3.9-11-2.1c1,0.5,2,1.2,2.8,2.1c4.8,5.1,9.1,11.9,12.9,19.1
		c11.2,21.6,17,45.6,16.9,70v253.7h8.2V342.3C268.3,317.9,262.5,293.9,251.3,272.2z"/>
</g>
<g class="st3">
	<path d="M413.6,272.9c3.8-7.2,8.1-14,12.9-19.1c0.9-1,2-1.7,3.2-2.3c-3.7-1.6-7.9-0.7-10.6,2.3c-4.8,5.1-9.1,11.9-12.9,19.1
		c-11.2,21.6-17,45.6-16.9,70v253.7h7.4V343C396.6,318.6,402.4,294.6,413.6,272.9z"/>
</g>
<linearGradient id="SVGID_2_" gradientUnits="userSpaceOnUse" x1="231.95" y1="637.2" x2="231.95" y2="699.8" gradientTransform="matrix(1 0 0 1 0 -20)">
	<stop  offset="0" style="stop-color:#E0E0E0"/>
	<stop  offset="0.31" style="stop-color:#FCCC63"/>
	<stop  offset="0.77" style="stop-color:#F55F44"/>
</linearGradient>
<rect x="220.4" y="617.2" class="st5" width="23.1" height="62.6"/>
<linearGradient id="SVGID_3_" gradientUnits="userSpaceOnUse" x1="306.95" y1="637.2" x2="306.95" y2="699.8" gradientTransform="matrix(1 0 0 1 0 -20)">
	<stop  offset="0" style="stop-color:#E0E0E0"/>
	<stop  offset="0.31" style="stop-color:#FCCC63"/>
	<stop  offset="0.77" style="stop-color:#F55F44"/>
</linearGradient>
<rect x="295.4" y="617.2" class="st6" width="23.1" height="62.6"/>
<linearGradient id="SVGID_4_" gradientUnits="userSpaceOnUse" x1="353.85" y1="637.2" x2="353.85" y2="699.8" gradientTransform="matrix(1 0 0 1 0 -20)">
	<stop  offset="0" style="stop-color:#E0E0E0"/>
	<stop  offset="0.31" style="stop-color:#FCCC63"/>
	<stop  offset="0.77" style="stop-color:#F55F44"/>
</linearGradient>
<rect x="342.3" y="617.2" class="st7" width="23.1" height="62.6"/>
<linearGradient id="SVGID_5_" gradientUnits="userSpaceOnUse" x1="429.65" y1="637.2" x2="429.65" y2="699.8" gradientTransform="matrix(1 0 0 1 0 -20)">
	<stop  offset="0" style="stop-color:#E0E0E0"/>
	<stop  offset="0.31" style="stop-color:#FCCC63"/>
	<stop  offset="0.77" style="stop-color:#F55F44"/>
</linearGradient>
<rect x="418.1" y="617.2" class="st8" width="23.1" height="62.6"/>
<path class="st9" d="M338.3,54.6c-4.6-5.4-12.7-6.1-18.1-1.6c-0.6,0.5-1.1,1-1.6,1.6c-6.8,7.7-13,17.8-18.4,28.6
	c-16,31.9-24.1,68.2-24.1,104.9v407.1h104.1V186.5c0-35.7-7.8-71-23-102.2C349.9,69.5,343.4,60.3,338.3,54.6z"/>
<path class="st10" d="M311.2,99.8h32.3c6.1,0,11,4.9,11,11v2.9c0,6.1-4.9,11-11,11h-32.3c-6.1,0-11-4.9-11-11v-2.9
	C300.2,104.8,305.2,99.8,311.2,99.8z"/>
<g class="st0">
	
		<linearGradient id="SVGID_6_" gradientUnits="userSpaceOnUse" x1="466.6003" y1="855.1501" x2="466.6003" y2="667.8892" gradientTransform="matrix(1 0 0 1 -137.41 -84.95)">
		<stop  offset="0" style="stop-color:#808080;stop-opacity:0.25"/>
		<stop  offset="0.54" style="stop-color:#808080;stop-opacity:0.12"/>
		<stop  offset="1" style="stop-color:#808080;stop-opacity:0.1"/>
	</linearGradient>
	<path class="st11" d="M570.6,673L570.6,673c-7.5-45.2-50.2-75.8-95.5-68.3c-40.2,6.7-69.7,41.6-69.4,82.4c0,0.4,0,0.8,0,1.2l0,0
		c-3.1,0.5-6.1,1.1-9.1,2c-10.2-40.6-51.4-65.3-92-55.1c-22.4,5.6-41,21.2-50.6,42.2c-6.7-2.6-13.8-4.2-20.9-4.8l0,0
		c-1.1-6.5-3.1-12.8-5.7-18.8c-2.7-41.8-38.8-73.4-80.6-70.7c-37.2,2.4-67.1,31.6-70.5,68.7c-3.9,8.3-6.4,17.2-7.4,26.4l0,0
		c-36,15-54.8,54.7-43.5,92H633c12.1-40.1-10.6-82.4-50.7-94.5C578.4,674.4,574.5,673.5,570.6,673z"/>
</g>
<linearGradient id="SVGID_7_" gradientUnits="userSpaceOnUse" x1="158.7" y1="606.5" x2="158.7" y2="752.1" gradientTransform="matrix(1 0 0 1 0 -20)">
	<stop  offset="0" style="stop-color:#F2F2F2"/>
	<stop  offset="0.31" style="stop-color:#E6E6E6"/>
	<stop  offset="0.77" style="stop-color:#CCCCCC"/>
</linearGradient>
<circle class="st12" cx="158.7" cy="659.3" r="72.8"/>
<linearGradient id="SVGID_8_" gradientUnits="userSpaceOnUse" x1="158.4" y1="626.9" x2="158.4" y2="786.5" gradientTransform="matrix(1 0 0 1 0 -20)">
	<stop  offset="0" style="stop-color:#F2F2F2"/>
	<stop  offset="0.31" style="stop-color:#E6E6E6"/>
	<stop  offset="0.77" style="stop-color:#CCCCCC"/>
</linearGradient>
<circle class="st13" cx="158.4" cy="686.7" r="79.8"/>
<linearGradient id="SVGID_9_" gradientUnits="userSpaceOnUse" x1="482.5" y1="626.9" x2="482.5" y2="786.5" gradientTransform="matrix(1 0 0 1 0 -20)">
	<stop  offset="0" style="stop-color:#F2F2F2"/>
	<stop  offset="0.31" style="stop-color:#E6E6E6"/>
	<stop  offset="0.77" style="stop-color:#CCCCCC"/>
</linearGradient>
<circle class="st14" cx="482.5" cy="686.7" r="79.8"/>
<linearGradient id="SVGID_10_" gradientUnits="userSpaceOnUse" x1="478.4" y1="640.8" x2="478.4" y2="786.4" gradientTransform="matrix(1 0 0 1 0 -20)">
	<stop  offset="0" style="stop-color:#F2F2F2"/>
	<stop  offset="0.31" style="stop-color:#E6E6E6"/>
	<stop  offset="0.77" style="stop-color:#CCCCCC"/>
</linearGradient>
<circle class="st15" cx="478.4" cy="693.6" r="72.8"/>
<linearGradient id="SVGID_11_" gradientUnits="userSpaceOnUse" x1="460.6751" y1="719.4802" x2="460.6751" y2="851.35" gradientTransform="matrix(1 0 0 1 -137.41 -84.95)">
	<stop  offset="0" style="stop-color:#F2F2F2"/>
	<stop  offset="0.31" style="stop-color:#E6E6E6"/>
	<stop  offset="0.77" style="stop-color:#CCCCCC"/>
</linearGradient>
<path class="st16" d="M396.1,707.4c0,23.4-11.2,45.3-30.1,59h-85.4c-32.6-23.6-39.9-69.1-16.4-101.7c23.6-32.6,69.1-39.9,101.7-16.4
	C384.9,662,396.1,684,396.1,707.4L396.1,707.4z"/>
<linearGradient id="SVGID_12_" gradientUnits="userSpaceOnUse" x1="368.248" y1="757.4501" x2="368.248" y2="851.35" gradientTransform="matrix(1 0 0 1 -137.41 -84.95)">
	<stop  offset="0" style="stop-color:#F2F2F2"/>
	<stop  offset="0.31" style="stop-color:#E6E6E6"/>
	<stop  offset="0.77" style="stop-color:#CCCCCC"/>
</linearGradient>
<path class="st17" d="M303.6,745.3c0,7.2-1,14.3-3.1,21.1H161.1 M161.1,766.4c-11.6-38.5,10.1-79.1,48.6-90.8
	c6.7-2,13.6-3.1,20.6-3.1h0.5c2,0,4.1,0.1,6.1,0.3c6.9,0.6,13.6,2.1,20.1,4.6c28.1,10.8,46.7,37.9,46.7,68L161.1,766.4z"/>
<linearGradient id="SVGID_13_" gradientUnits="userSpaceOnUse" x1="551.06" y1="772" x2="551.06" y2="851.3" gradientTransform="matrix(1 0 0 1 -137.41 -84.95)">
	<stop  offset="0" style="stop-color:#F2F2F2"/>
	<stop  offset="0.31" style="stop-color:#E6E6E6"/>
	<stop  offset="0.77" style="stop-color:#CCCCCC"/>
</linearGradient>
<path class="st18" d="M486.5,759.9c0,2.2-0.1,4.3-0.3,6.5v0.1H341.1c-0.2-2.2-0.3-4.3-0.3-6.5c0-36,26.3-66.6,61.9-72
	c3.6-0.5,7.2-0.8,10.9-0.8c1.9,0,3.7,0.1,5.5,0.2c26.6,2,49.9,18.4,60.9,42.7c0.3,0.7,0.6,1.3,0.9,2
	C484.6,740.8,486.5,750.3,486.5,759.9z"/>
<linearGradient id="SVGID_14_" gradientUnits="userSpaceOnUse" x1="688.7004" y1="757.45" x2="688.7004" y2="851.35" gradientTransform="matrix(1 0 0 1 -137.41 -84.95)">
	<stop  offset="0" style="stop-color:#F2F2F2"/>
	<stop  offset="0.31" style="stop-color:#E6E6E6"/>
	<stop  offset="0.77" style="stop-color:#CCCCCC"/>
</linearGradient>
<path class="st19" d="M624.1,745.3c0,7.2-1,14.3-3.1,21.1H481.6l0,0c-3.4-11.2-4-23-1.9-34.5c0.1-0.6,0.2-1.3,0.4-1.9
	c7.2-33.6,36.9-57.5,71.2-57.5c2.3,0,4.5,0.1,6.8,0.3c1,0.1,2,0.2,3,0.3C597.2,678,624.1,708.9,624.1,745.3z"/>
<linearGradient id="SVGID_15_" gradientUnits="userSpaceOnUse" x1="244.4445" y1="757.3995" x2="244.4445" y2="851.3501" gradientTransform="matrix(1 0 0 1 -137.41 -84.95)">
	<stop  offset="0" style="stop-color:#F2F2F2"/>
	<stop  offset="0.31" style="stop-color:#E6E6E6"/>
	<stop  offset="0.77" style="stop-color:#CCCCCC"/>
</linearGradient>
<path class="st20" d="M176.7,766.4c0.2-0.8,0.5-1.5,0.7-2.3c10.4-38.9-12.7-78.8-51.6-89.2c-12.5-3.3-25.7-3.3-38.2,0.2
	c-2.9,0.8-5.7,1.8-8.5,2.9c-34.6,14.4-52.6,52.6-41.8,88.4L176.7,766.4L176.7,766.4z"/>
<g class="st0">
	
		<linearGradient id="SVGID_16_" gradientUnits="userSpaceOnUse" x1="596.4" y1="636.63" x2="596.4" y2="609.91" gradientTransform="matrix(1 0 0 1 0 -20)">
		<stop  offset="0" style="stop-color:#808080;stop-opacity:0.25"/>
		<stop  offset="0.54" style="stop-color:#808080;stop-opacity:0.12"/>
		<stop  offset="1" style="stop-color:#808080;stop-opacity:0.1"/>
	</linearGradient>
	<circle class="st21" cx="596.4" cy="603.3" r="13.4"/>
</g>
<linearGradient id="SVGID_17_" gradientUnits="userSpaceOnUse" x1="596.4" y1="610.9" x2="596.4" y2="635.66" gradientTransform="matrix(1 0 0 1 0 -20)">
	<stop  offset="0" style="stop-color:#F2F2F2"/>
	<stop  offset="0.31" style="stop-color:#E6E6E6"/>
	<stop  offset="0.77" style="stop-color:#CCCCCC"/>
</linearGradient>
<circle class="st22" cx="596.4" cy="603.3" r="12.4"/>
<g class="st0">
	
		<linearGradient id="SVGID_18_" gradientUnits="userSpaceOnUse" x1="657.6" y1="766.75" x2="657.6" y2="737.61" gradientTransform="matrix(1 0 0 1 0 -20)">
		<stop  offset="0" style="stop-color:#808080;stop-opacity:0.25"/>
		<stop  offset="0.54" style="stop-color:#808080;stop-opacity:0.12"/>
		<stop  offset="1" style="stop-color:#808080;stop-opacity:0.1"/>
	</linearGradient>
	<circle class="st23" cx="657.6" cy="732.2" r="14.6"/>
</g>
<linearGradient id="SVGID_19_" gradientUnits="userSpaceOnUse" x1="657.6" y1="738.34" x2="657.6" y2="766.02" gradientTransform="matrix(1 0 0 1 0 -20)">
	<stop  offset="0" style="stop-color:#F2F2F2"/>
	<stop  offset="0.31" style="stop-color:#E0E0E0"/>
	<stop  offset="0.77" style="stop-color:#B3B3B3"/>
</linearGradient>
<circle class="st24" cx="657.6" cy="732.2" r="13.8"/>
<g class="st0">
	
		<linearGradient id="SVGID_20_" gradientUnits="userSpaceOnUse" x1="34.2" y1="685.16" x2="34.2" y2="653.16" gradientTransform="matrix(1 0 0 1 0 -20)">
		<stop  offset="0" style="stop-color:#808080;stop-opacity:0.25"/>
		<stop  offset="0.54" style="stop-color:#808080;stop-opacity:0.12"/>
		<stop  offset="1" style="stop-color:#808080;stop-opacity:0.1"/>
	</linearGradient>
	<circle class="st25" cx="34.2" cy="649.2" r="16"/>
</g>
<linearGradient id="SVGID_21_" gradientUnits="userSpaceOnUse" x1="34.2" y1="653.86" x2="34.2" y2="684.46" gradientTransform="matrix(1 0 0 1 0 -20)">
	<stop  offset="0" style="stop-color:#F2F2F2"/>
	<stop  offset="0.31" style="stop-color:#E6E6E6"/>
	<stop  offset="0.77" style="stop-color:#CCCCCC"/>
</linearGradient>
<circle class="st26" cx="34.2" cy="649.2" r="15.3"/>
<g class="st27">
	
		<linearGradient id="SVGID_22_" gradientUnits="userSpaceOnUse" x1="739.6797" y1="172.85" x2="739.6797" y2="85.0039" gradientTransform="matrix(1 0 0 1 -137.41 -84.95)">
		<stop  offset="0" style="stop-color:#808080;stop-opacity:0.25"/>
		<stop  offset="0.54" style="stop-color:#808080;stop-opacity:0.12"/>
		<stop  offset="1" style="stop-color:#808080;stop-opacity:0.1"/>
	</linearGradient>
	<path class="st28" d="M637.3,17.5L637.3,17.5c-3.5-4.7-8-8.6-13.1-11.6l0,0c-21-12.1-47.9-4.8-60,16.2s-4.8,47.9,16.2,60
		c6.6,3.8,14.1,5.8,21.8,5.8c0.9,0,1.9,0,2.8-0.1c24.2-1.5,42.6-22.4,41.1-46.6C645.5,32.6,642.5,24.4,637.3,17.5L637.3,17.5z"/>
</g>
<path class="st29" d="M643.8,43.9c0,21.9-17,40-38.9,41.4c-0.9,0.1-1.8,0.1-2.6,0.1c-22.9,0-41.5-18.6-41.5-41.5
	s18.6-41.5,41.5-41.5c7.3,0,14.4,1.9,20.7,5.5l0,0c4.8,2.8,9,6.5,12.4,10.9l0,0C640.8,26.1,643.8,34.9,643.8,43.9z"/>
<path class="st30" d="M592,17.6c-2.1,0.9-4.2,2-6.2,3.3c-1.3,0.7-2.5,1.8-3.3,3c-0.9,1.3-0.9,2.9-0.1,4.2c1,1.4,3,1.6,4.7,1.7
	c3.1,0.7,6.4-0.4,8.5-2.8l3.6-3.2c1.2-1.1,2.6-2.7,2.1-4.3c-0.4-1.2-1.8-1.8-3-2c-3.1-0.6-6.3,0-8.9,1.6"/>
<circle class="st30" cx="577.1" cy="60.3" r="2.2"/>
<circle class="st30" cx="621.6" cy="46.5" r="8"/>
<path class="st30" d="M635.4,18.9L635.4,18.9c-0.1,6-5.1,10.9-11.1,10.8s-10.9-5.1-10.8-11.1c0.1-5.4,4.1-10,9.5-10.7l0,0
	C627.8,10.7,632,14.5,635.4,18.9z"/>
<path class="st30" d="M636.2,67.8c-7.2,10.3-18.8,16.7-31.3,17.5c-0.1-0.6-0.1-1.1-0.1-1.7c0-10.9,8.8-19.7,19.7-19.7
	C628.7,64,632.8,65.3,636.2,67.8L636.2,67.8z"/>
<linearGradient id="SVGID_23_" gradientUnits="userSpaceOnUse" x1="603.7" y1="427.3" x2="613.9" y2="427.3" gradientTransform="matrix(1 0 0 -1 0 772)">
	<stop  offset="0" style="stop-color:#F2F2F2"/>
	<stop  offset="0.31" style="stop-color:#E6E6E6"/>
	<stop  offset="0.77" style="stop-color:#CCCCCC"/>
</linearGradient>
<circle class="st31" cx="608.8" cy="344.7" r="5.1"/>
<linearGradient id="SVGID_24_" gradientUnits="userSpaceOnUse" x1="169.63" y1="505.9" x2="179.83" y2="505.9" gradientTransform="matrix(1 0 0 -1 0 772)">
	<stop  offset="0" style="stop-color:#F2F2F2"/>
	<stop  offset="0.31" style="stop-color:#E6E6E6"/>
	<stop  offset="0.77" style="stop-color:#CCCCCC"/>
</linearGradient>
<circle class="st32" cx="174.7" cy="266.1" r="5.1"/>
<linearGradient id="SVGID_25_" gradientUnits="userSpaceOnUse" x1="152.88" y1="623.2" x2="163.08" y2="623.2" gradientTransform="matrix(1 0 0 -1 0 772)">
	<stop  offset="0" style="stop-color:#F2F2F2"/>
	<stop  offset="0.31" style="stop-color:#E6E6E6"/>
	<stop  offset="0.77" style="stop-color:#CCCCCC"/>
</linearGradient>
<circle class="st33" cx="158" cy="148.8" r="5.1"/>
<linearGradient id="SVGID_26_" gradientUnits="userSpaceOnUse" x1="8.67" y1="390.9" x2="18.87" y2="390.9" gradientTransform="matrix(1 0 0 -1 0 772)">
	<stop  offset="0" style="stop-color:#F2F2F2"/>
	<stop  offset="0.31" style="stop-color:#E6E6E6"/>
	<stop  offset="0.77" style="stop-color:#CCCCCC"/>
</linearGradient>
<circle class="st34" cx="13.8" cy="381.1" r="5.1"/>
<linearGradient id="SVGID_27_" gradientUnits="userSpaceOnUse" x1="476.62" y1="628.65" x2="487.55" y2="628.65" gradientTransform="matrix(1 0 0 -1 0 772)">
	<stop  offset="0" style="stop-color:#F2F2F2"/>
	<stop  offset="0.31" style="stop-color:#E6E6E6"/>
	<stop  offset="0.77" style="stop-color:#CCCCCC"/>
</linearGradient>
<polygon class="st35" points="487.5,142.4 483,142.4 483,137.9 481.2,137.9 481.2,142.4 476.6,142.4 476.6,144.3 481.2,144.3 
	481.2,148.8 483,148.8 483,144.3 487.5,144.3 "/>
<linearGradient id="SVGID_28_" gradientUnits="userSpaceOnUse" x1="508.67" y1="258.65" x2="519.59" y2="258.65" gradientTransform="matrix(1 0 0 -1 0 772)">
	<stop  offset="0" style="stop-color:#F2F2F2"/>
	<stop  offset="0.31" style="stop-color:#E6E6E6"/>
	<stop  offset="0.77" style="stop-color:#CCCCCC"/>
</linearGradient>
<polygon class="st36" points="519.6,512.4 515.1,512.4 515.1,507.9 513.2,507.9 513.2,512.4 508.7,512.4 508.7,514.3 513.2,514.3 
	513.2,518.8 515.1,518.8 515.1,514.3 519.6,514.3 "/>
<linearGradient id="SVGID_29_" gradientUnits="userSpaceOnUse" x1="44" y1="569.65" x2="54.93" y2="569.65" gradientTransform="matrix(1 0 0 -1 0 772)">
	<stop  offset="0" style="stop-color:#F2F2F2"/>
	<stop  offset="0.31" style="stop-color:#E6E6E6"/>
	<stop  offset="0.77" style="stop-color:#CCCCCC"/>
</linearGradient>
<polygon class="st37" points="54.9,201.4 50.4,201.4 50.4,196.9 48.5,196.9 48.5,201.4 44,201.4 44,203.3 48.5,203.3 48.5,207.8 
	50.4,207.8 50.4,203.3 54.9,203.3 "/>
<linearGradient id="SVGID_30_" gradientUnits="userSpaceOnUse" x1="106.64" y1="324.95" x2="117.56" y2="324.95" gradientTransform="matrix(1 0 0 -1 0 772)">
	<stop  offset="0" style="stop-color:#F2F2F2"/>
	<stop  offset="0.31" style="stop-color:#E6E6E6"/>
	<stop  offset="0.77" style="stop-color:#CCCCCC"/>
</linearGradient>
<polygon class="st38" points="117.6,446.1 113,446.1 113,441.6 111.2,441.6 111.2,446.1 106.6,446.1 106.6,448 111.2,448 
	111.2,452.5 113,452.5 113,448 117.6,448 "/>
<linearGradient id="SVGID_31_" gradientUnits="userSpaceOnUse" x1="657.6" y1="738.34" x2="657.6" y2="766.02" gradientTransform="matrix(1 0 0 1 0 -20)">
	<stop  offset="0" style="stop-color:#F2F2F2"/>
	<stop  offset="0.31" style="stop-color:#E6E6E6"/>
	<stop  offset="0.77" style="stop-color:#CCCCCC"/>
</linearGradient>
<circle class="st39" cx="657.6" cy="732.2" r="13.8"/>
<g class="st27">
	
		<linearGradient id="SVGID_32_" gradientUnits="userSpaceOnUse" x1="275.7203" y1="466.7568" x2="275.7203" y2="424.9202" gradientTransform="matrix(1 0 0 1 -137.41 -84.95)">
		<stop  offset="0" style="stop-color:#808080;stop-opacity:0.25"/>
		<stop  offset="0.54" style="stop-color:#808080;stop-opacity:0.12"/>
		<stop  offset="1" style="stop-color:#808080;stop-opacity:0.1"/>
	</linearGradient>
	<path class="st40" d="M155,348.3L155,348.3c-1.7-2.2-3.8-4.1-6.2-5.5l0,0c-10-5.8-22.8-2.4-28.6,7.6s-2.4,22.8,7.6,28.6
		c3.2,1.9,6.9,2.9,10.6,2.8c0.4,0,0.9,0,1.3,0c11.5-0.7,20.3-10.7,19.5-22.2C158.9,355.5,157.4,351.6,155,348.3L155,348.3z"/>
</g>
<path class="st29" d="M158,360.9c0,10.4-8.1,19.1-18.5,19.7c-0.4,0-0.8,0-1.3,0c-10.9,0-19.8-8.9-19.7-19.8
	c0-10.9,8.9-19.8,19.8-19.7c3.5,0,6.9,0.9,9.8,2.6l0,0c2.3,1.3,4.3,3.1,5.9,5.2l0,0C156.6,352.4,158,356.6,158,360.9z"/>
<path class="st41" d="M133.4,348.4c-1,0.4-2,1-3,1.5c-0.6,0.3-1.2,0.8-1.6,1.4c-0.4,0.6-0.4,1.4,0,2c0.6,0.6,1.4,0.9,2.2,0.8
	c1.5,0.3,3-0.2,4-1.3l1.7-1.5c0.6-0.5,1.2-1.3,1-2c-0.3-0.6-0.8-0.9-1.4-1c-1.5-0.3-3,0-4.3,0.8"/>
<circle class="st41" cx="126.3" cy="368.7" r="1"/>
<circle class="st41" cx="147.5" cy="362.1" r="3.8"/>
<path class="st41" d="M154,349L154,349c0,2.9-2.4,5.2-5.3,5.1c-2.9,0-5.2-2.4-5.1-5.3c0-2.6,2-4.7,4.5-5.1l0,0
	C150.4,345.2,152.4,346.9,154,349z"/>
<path class="st41" d="M154.4,372.3c-3.4,4.9-8.9,8-14.9,8.4c0-0.3,0-0.5,0-0.8c0-5.2,4.2-9.4,9.3-9.4
	C150.9,370.4,152.9,371.1,154.4,372.3L154.4,372.3z"/>
<g class="st3">
	<rect x="276.6" y="202.1" width="103" height="4"/>
</g>
</svg>
